G04*
G04 #@! TF.GenerationSoftware,Altium Limited,Altium Designer,20.2.5 (213)*
G04*
G04 Layer_Color=65535*
%FSLAX25Y25*%
%MOIN*%
G70*
G04*
G04 #@! TF.SameCoordinates,C82EAABF-E96C-4361-AD7C-52AFF524FF79*
G04*
G04*
G04 #@! TF.FilePolarity,Positive*
G04*
G01*
G75*
%ADD10C,0.00787*%
%ADD11C,0.00600*%
%ADD12C,0.00500*%
%ADD13C,0.01181*%
%ADD14C,0.01000*%
D10*
X216929Y104413D02*
G03*
X216929Y104413I-394J0D01*
G01*
X372110Y246063D02*
G03*
X372110Y246063I-9843J0D01*
G01*
X187008Y114173D02*
G03*
X187008Y133858I-3420J9843D01*
G01*
X167323D02*
G03*
X167323Y114173I3682J-9843D01*
G01*
X196850Y167323D02*
G03*
X196850Y167323I-19685J0D01*
G01*
X177165Y206693D02*
G03*
X196850Y206693I9843J3420D01*
G01*
Y226378D02*
G03*
X177165Y226378I-9843J-3682D01*
G01*
X104331Y206693D02*
G03*
X124016Y206693I9843J3420D01*
G01*
Y226378D02*
G03*
X104331Y226378I-9843J-3682D01*
G01*
X124016Y167323D02*
G03*
X124016Y167323I-19685J0D01*
G01*
X114173Y112205D02*
G03*
X114173Y131890I-3420J9843D01*
G01*
X94488D02*
G03*
X94488Y112205I3682J-9843D01*
G01*
X372110Y212598D02*
G03*
X372110Y212598I-9843J0D01*
G01*
X175197Y226575D02*
Y236417D01*
X140638Y226575D02*
X175197D01*
X140638D02*
Y236417D01*
X155020D01*
X150098D02*
X175197D01*
Y266339D02*
Y276181D01*
X140638Y266339D02*
X175197D01*
X140638D02*
Y276181D01*
X155020D01*
X150098D02*
X175197D01*
X376268Y244563D02*
Y248563D01*
X374268Y246563D02*
X378268D01*
X167323Y114173D02*
X172244D01*
X182087D02*
X187008D01*
X167323Y133858D02*
X187008D01*
X172244Y114173D02*
X182087D01*
X202008Y165823D02*
Y169823D01*
X200008Y167823D02*
X204008D01*
X177165Y221457D02*
Y226378D01*
Y206693D02*
Y211614D01*
X196850Y206693D02*
Y226378D01*
X177165Y211614D02*
Y221457D01*
X104331D02*
Y226378D01*
Y206693D02*
Y211614D01*
X124016Y206693D02*
Y226378D01*
X104331Y211614D02*
Y221457D01*
X79488Y164823D02*
Y168823D01*
X77488Y166823D02*
X81488D01*
X94488Y112205D02*
X99410D01*
X109252D02*
X114173D01*
X94488Y131890D02*
X114173D01*
X99410Y112205D02*
X109252D01*
X376268Y211098D02*
Y215098D01*
X374268Y213098D02*
X378268D01*
D11*
X144776Y255421D02*
X171366D01*
X144776Y244579D02*
Y255421D01*
Y244579D02*
X171366D01*
Y255421D01*
X256698Y289157D02*
Y299452D01*
X178498Y278752D02*
X256698D01*
Y285646D01*
X178498Y299452D02*
X256698D01*
X178498Y291454D02*
Y299452D01*
Y278752D02*
Y283350D01*
X78634Y255421D02*
X105224D01*
X78634Y244579D02*
Y255421D01*
Y244579D02*
X105224D01*
Y255421D01*
X317413Y216429D02*
Y243020D01*
Y216429D02*
X328256D01*
Y243020D01*
X317413D02*
X328256D01*
X282980Y216429D02*
Y243020D01*
X272138D02*
X282980D01*
X272138Y216429D02*
Y243020D01*
Y216429D02*
X282980D01*
X306602D02*
Y243020D01*
X295760D02*
X306602D01*
X295760Y216429D02*
Y243020D01*
Y216429D02*
X306602D01*
D12*
X241142Y91815D02*
Y107563D01*
X219488Y91815D02*
X241142D01*
X219488D02*
Y107563D01*
X244094D02*
Y111500D01*
X241142Y107563D02*
X244094D01*
X219488D02*
X241142D01*
X216535D02*
X219488D01*
X216535D02*
Y111500D01*
X215551D02*
X216535D01*
X244094D01*
X245079D01*
Y164650D01*
X215551D02*
X245079D01*
X215551Y111500D02*
Y164650D01*
D13*
X324016Y104327D02*
Y94488D01*
Y97768D01*
X330575Y104327D01*
X325656Y99408D01*
X330575Y94488D01*
X333855Y101048D02*
Y96128D01*
X335495Y94488D01*
X340415D01*
Y101048D01*
X343694Y94488D02*
X348614D01*
X350254Y96128D01*
X348614Y97768D01*
X345334D01*
X343694Y99408D01*
X345334Y101048D01*
X350254D01*
D14*
X153725Y218141D02*
X152725Y219141D01*
X150726D01*
X149726Y218141D01*
Y217141D01*
X150726Y216142D01*
X152725D01*
X153725Y215142D01*
Y214142D01*
X152725Y213143D01*
X150726D01*
X149726Y214142D01*
X159723Y213143D02*
X155724D01*
X159723Y217141D01*
Y218141D01*
X158723Y219141D01*
X156724D01*
X155724Y218141D01*
X146063Y286645D02*
X145063Y287645D01*
X143064D01*
X142064Y286645D01*
Y285645D01*
X143064Y284646D01*
X145063D01*
X146063Y283646D01*
Y282646D01*
X145063Y281647D01*
X143064D01*
X142064Y282646D01*
X148062Y281647D02*
X150062D01*
X149062D01*
Y287645D01*
X148062Y286645D01*
X174135Y258418D02*
Y264416D01*
X177135D01*
X178134Y263417D01*
Y261417D01*
X177135Y260418D01*
X174135D01*
X176135D02*
X178134Y258418D01*
X184132D02*
X180133D01*
X184132Y262417D01*
Y263417D01*
X183133Y264416D01*
X181133D01*
X180133Y263417D01*
X260750Y297094D02*
Y292095D01*
X261749Y291095D01*
X263749D01*
X264748Y292095D01*
Y297094D01*
X266748Y296094D02*
X267747Y297094D01*
X269747D01*
X270746Y296094D01*
Y295094D01*
X268747Y293095D01*
Y292095D02*
Y291095D01*
X232314Y180164D02*
X230315D01*
X231315D01*
Y175166D01*
X230315Y174166D01*
X229315D01*
X228316Y175166D01*
X353331Y265779D02*
X352331Y266779D01*
X350332D01*
X349332Y265779D01*
Y261780D01*
X350332Y260781D01*
X352331D01*
X353331Y261780D01*
X355330Y265779D02*
X356330Y266779D01*
X358329D01*
X359329Y265779D01*
Y264779D01*
X358329Y263779D01*
X359329Y262780D01*
Y261780D01*
X358329Y260781D01*
X356330D01*
X355330Y261780D01*
Y262780D01*
X356330Y263779D01*
X355330Y264779D01*
Y265779D01*
X356330Y263779D02*
X358329D01*
X176166Y94519D02*
X175166Y95519D01*
X173167D01*
X172167Y94519D01*
Y90520D01*
X173167Y89521D01*
X175166D01*
X176166Y90520D01*
X182164Y95519D02*
X180164Y94519D01*
X178165Y92520D01*
Y90520D01*
X179165Y89521D01*
X181164D01*
X182164Y90520D01*
Y91520D01*
X181164Y92520D01*
X178165D01*
X170654Y197669D02*
X169654Y198668D01*
X167655D01*
X166655Y197669D01*
Y193670D01*
X167655Y192670D01*
X169654D01*
X170654Y193670D01*
X176652Y198668D02*
X172653D01*
Y195669D01*
X174653Y196669D01*
X175652D01*
X176652Y195669D01*
Y193670D01*
X175652Y192670D01*
X173653D01*
X172653Y193670D01*
X221048Y220897D02*
X220048Y221897D01*
X218049D01*
X217049Y220897D01*
Y216898D01*
X218049Y215899D01*
X220048D01*
X221048Y216898D01*
X226046Y215899D02*
Y221897D01*
X223047Y218898D01*
X227046D01*
X90551Y222472D02*
X89552Y223471D01*
X87552D01*
X86553Y222472D01*
Y218473D01*
X87552Y217473D01*
X89552D01*
X90551Y218473D01*
X92550Y217473D02*
X94550D01*
X93550D01*
Y223471D01*
X92550Y222472D01*
X88521Y266686D02*
Y272684D01*
X91520D01*
X92520Y271684D01*
Y269685D01*
X91520Y268685D01*
X88521D01*
X90520D02*
X92520Y266686D01*
X94519D02*
X96518D01*
X95519D01*
Y272684D01*
X94519Y271684D01*
X73804Y141763D02*
X72804Y142763D01*
X70804D01*
X69805Y141763D01*
Y137764D01*
X70804Y136765D01*
X72804D01*
X73804Y137764D01*
X79801Y136765D02*
X75803D01*
X79801Y140763D01*
Y141763D01*
X78802Y142763D01*
X76802D01*
X75803Y141763D01*
X73804Y106330D02*
X72804Y107330D01*
X70804D01*
X69805Y106330D01*
Y102331D01*
X70804Y101332D01*
X72804D01*
X73804Y102331D01*
X75803Y106330D02*
X76802Y107330D01*
X78802D01*
X79801Y106330D01*
Y105330D01*
X78802Y104331D01*
X77802D01*
X78802D01*
X79801Y103331D01*
Y102331D01*
X78802Y101332D01*
X76802D01*
X75803Y102331D01*
X356416Y231447D02*
X355417Y232447D01*
X353417D01*
X352418Y231447D01*
Y227448D01*
X353417Y226448D01*
X355417D01*
X356416Y227448D01*
X358416Y232447D02*
X362415D01*
Y231447D01*
X358416Y227448D01*
Y226448D01*
X317378Y265161D02*
X321377D01*
Y264161D01*
X317378Y260163D01*
Y259163D01*
X321377D01*
X323376D02*
X325375D01*
X324376D01*
Y265161D01*
X323376Y264161D01*
X272126Y259127D02*
Y265125D01*
X275125D01*
X276125Y264125D01*
Y262126D01*
X275125Y261126D01*
X272126D01*
X274125D02*
X276125Y259127D01*
X278124Y264125D02*
X279124Y265125D01*
X281123D01*
X282123Y264125D01*
Y263125D01*
X281123Y262126D01*
X280123D01*
X281123D01*
X282123Y261126D01*
Y260126D01*
X281123Y259127D01*
X279124D01*
X278124Y260126D01*
X295752Y259195D02*
Y265193D01*
X298751D01*
X299751Y264194D01*
Y262194D01*
X298751Y261195D01*
X295752D01*
X297751D02*
X299751Y259195D01*
X304749D02*
Y265193D01*
X301750Y262194D01*
X305749D01*
M02*
