G04*
G04 #@! TF.GenerationSoftware,Altium Limited,Altium Designer,20.2.5 (213)*
G04*
G04 Layer_Physical_Order=2*
G04 Layer_Color=16711680*
%FSLAX25Y25*%
%MOIN*%
G70*
G04*
G04 #@! TF.SameCoordinates,C82EAABF-E96C-4361-AD7C-52AFF524FF79*
G04*
G04*
G04 #@! TF.FilePolarity,Positive*
G04*
G01*
G75*
%ADD17C,0.05362*%
%ADD18R,0.05362X0.05362*%
%ADD23R,0.05362X0.05362*%
%ADD25R,0.09843X0.04724*%
%ADD26O,0.09843X0.04724*%
%ADD27R,0.06300X0.06300*%
%ADD28C,0.06300*%
%ADD29O,0.14173X0.07087*%
%ADD30C,0.04724*%
%ADD31C,0.05000*%
G36*
X387008Y85433D02*
X62205D01*
Y303543D01*
X62598Y303937D01*
X62268Y305918D01*
X62591Y306299D01*
X387008D01*
Y85433D01*
D02*
G37*
%LPC*%
G36*
X243098Y291522D02*
Y287902D01*
X246718D01*
X246642Y288485D01*
X246223Y289494D01*
X245558Y290361D01*
X244691Y291027D01*
X243682Y291445D01*
X243098Y291522D01*
D02*
G37*
G36*
X242098D02*
X241515Y291445D01*
X240506Y291027D01*
X239639Y290361D01*
X238973Y289494D01*
X238555Y288485D01*
X238478Y287902D01*
X242098D01*
Y291522D01*
D02*
G37*
G36*
X246718Y286902D02*
X243098D01*
Y283282D01*
X243682Y283358D01*
X244691Y283776D01*
X245558Y284442D01*
X246223Y285309D01*
X246642Y286318D01*
X246718Y286902D01*
D02*
G37*
G36*
X242098D02*
X238478D01*
X238555Y286318D01*
X238973Y285309D01*
X239639Y284442D01*
X240506Y283776D01*
X241515Y283358D01*
X242098Y283282D01*
Y286902D01*
D02*
G37*
G36*
X186930Y291733D02*
X178267D01*
Y283070D01*
X186930D01*
Y291733D01*
D02*
G37*
G36*
X252598Y291770D02*
X251468Y291621D01*
X250414Y291185D01*
X249510Y290491D01*
X248815Y289586D01*
X248379Y288532D01*
X248230Y287402D01*
X248379Y286271D01*
X248815Y285217D01*
X249510Y284313D01*
X250414Y283618D01*
X251468Y283182D01*
X252598Y283033D01*
X253729Y283182D01*
X254783Y283618D01*
X255687Y284313D01*
X256382Y285217D01*
X256818Y286271D01*
X256967Y287402D01*
X256818Y288532D01*
X256382Y289586D01*
X255687Y290491D01*
X254783Y291185D01*
X253729Y291621D01*
X252598Y291770D01*
D02*
G37*
G36*
X232598D02*
X231468Y291621D01*
X230414Y291185D01*
X229509Y290491D01*
X228815Y289586D01*
X228379Y288532D01*
X228230Y287402D01*
X228379Y286271D01*
X228815Y285217D01*
X229509Y284313D01*
X230414Y283618D01*
X231468Y283182D01*
X232598Y283033D01*
X233729Y283182D01*
X234783Y283618D01*
X235687Y284313D01*
X236382Y285217D01*
X236818Y286271D01*
X236967Y287402D01*
X236818Y288532D01*
X236382Y289586D01*
X235687Y290491D01*
X234783Y291185D01*
X233729Y291621D01*
X232598Y291770D01*
D02*
G37*
G36*
X222598D02*
X221468Y291621D01*
X220414Y291185D01*
X219510Y290491D01*
X218815Y289586D01*
X218379Y288532D01*
X218230Y287402D01*
X218379Y286271D01*
X218815Y285217D01*
X219510Y284313D01*
X220414Y283618D01*
X221468Y283182D01*
X222598Y283033D01*
X223729Y283182D01*
X224783Y283618D01*
X225687Y284313D01*
X226382Y285217D01*
X226818Y286271D01*
X226967Y287402D01*
X226818Y288532D01*
X226382Y289586D01*
X225687Y290491D01*
X224783Y291185D01*
X223729Y291621D01*
X222598Y291770D01*
D02*
G37*
G36*
X212598D02*
X211468Y291621D01*
X210414Y291185D01*
X209509Y290491D01*
X208815Y289586D01*
X208379Y288532D01*
X208230Y287402D01*
X208379Y286271D01*
X208815Y285217D01*
X209509Y284313D01*
X210414Y283618D01*
X211468Y283182D01*
X212598Y283033D01*
X213729Y283182D01*
X214783Y283618D01*
X215687Y284313D01*
X216382Y285217D01*
X216818Y286271D01*
X216967Y287402D01*
X216818Y288532D01*
X216382Y289586D01*
X215687Y290491D01*
X214783Y291185D01*
X213729Y291621D01*
X212598Y291770D01*
D02*
G37*
G36*
X202598D02*
X201468Y291621D01*
X200414Y291185D01*
X199510Y290491D01*
X198815Y289586D01*
X198379Y288532D01*
X198230Y287402D01*
X198379Y286271D01*
X198815Y285217D01*
X199510Y284313D01*
X200414Y283618D01*
X201468Y283182D01*
X202598Y283033D01*
X203729Y283182D01*
X204783Y283618D01*
X205687Y284313D01*
X206382Y285217D01*
X206818Y286271D01*
X206967Y287402D01*
X206818Y288532D01*
X206382Y289586D01*
X205687Y290491D01*
X204783Y291185D01*
X203729Y291621D01*
X202598Y291770D01*
D02*
G37*
G36*
X192598D02*
X191468Y291621D01*
X190414Y291185D01*
X189509Y290491D01*
X188815Y289586D01*
X188379Y288532D01*
X188230Y287402D01*
X188379Y286271D01*
X188815Y285217D01*
X189509Y284313D01*
X190414Y283618D01*
X191468Y283182D01*
X192598Y283033D01*
X193729Y283182D01*
X194783Y283618D01*
X195687Y284313D01*
X196382Y285217D01*
X196818Y286271D01*
X196967Y287402D01*
X196818Y288532D01*
X196382Y289586D01*
X195687Y290491D01*
X194783Y291185D01*
X193729Y291621D01*
X192598Y291770D01*
D02*
G37*
G36*
X168217Y282992D02*
Y280028D01*
X171181D01*
X171126Y280441D01*
X170774Y281293D01*
X170213Y282024D01*
X169482Y282585D01*
X168630Y282938D01*
X168217Y282992D01*
D02*
G37*
G36*
X167217D02*
X166803Y282938D01*
X165951Y282585D01*
X165220Y282024D01*
X164659Y281293D01*
X164307Y280441D01*
X164252Y280028D01*
X167217D01*
Y282992D01*
D02*
G37*
G36*
X281996Y281023D02*
Y278059D01*
X284960D01*
X284906Y278473D01*
X284553Y279324D01*
X283992Y280055D01*
X283261Y280616D01*
X282410Y280969D01*
X281996Y281023D01*
D02*
G37*
G36*
X280996D02*
X280582Y280969D01*
X279731Y280616D01*
X279000Y280055D01*
X278439Y279324D01*
X278086Y278473D01*
X278032Y278059D01*
X280996D01*
Y281023D01*
D02*
G37*
G36*
X171181Y279028D02*
X168217D01*
Y276063D01*
X168630Y276118D01*
X169482Y276470D01*
X170213Y277031D01*
X170774Y277763D01*
X171126Y278614D01*
X171181Y279028D01*
D02*
G37*
G36*
X167217D02*
X164252D01*
X164307Y278614D01*
X164659Y277763D01*
X165220Y277031D01*
X165951Y276470D01*
X166803Y276118D01*
X167217Y276063D01*
Y279028D01*
D02*
G37*
G36*
X284960Y277059D02*
X281996D01*
Y274095D01*
X282410Y274149D01*
X283261Y274502D01*
X283992Y275063D01*
X284553Y275794D01*
X284906Y276645D01*
X284960Y277059D01*
D02*
G37*
G36*
X280996D02*
X278032D01*
X278086Y276645D01*
X278439Y275794D01*
X279000Y275063D01*
X279731Y274502D01*
X280582Y274149D01*
X280996Y274095D01*
Y277059D01*
D02*
G37*
G36*
X169882Y274651D02*
X167823D01*
Y271760D01*
X173207D01*
X173158Y272138D01*
X172819Y272955D01*
X172280Y273658D01*
X171578Y274197D01*
X170760Y274535D01*
X169882Y274651D01*
D02*
G37*
G36*
X166823D02*
X164764D01*
X163886Y274535D01*
X163068Y274197D01*
X162366Y273658D01*
X161827Y272955D01*
X161488Y272138D01*
X161438Y271760D01*
X166823D01*
Y274651D01*
D02*
G37*
G36*
X173207Y270760D02*
X167823D01*
Y267869D01*
X169882D01*
X170760Y267984D01*
X171578Y268323D01*
X172280Y268862D01*
X172819Y269564D01*
X173158Y270382D01*
X173207Y270760D01*
D02*
G37*
G36*
X166823D02*
X161438D01*
X161488Y270382D01*
X161827Y269564D01*
X162366Y268862D01*
X163068Y268323D01*
X163886Y267984D01*
X164764Y267869D01*
X166823D01*
Y270760D01*
D02*
G37*
G36*
X147638Y274834D02*
X147406Y274803D01*
X141535D01*
Y267717D01*
X147406D01*
X147638Y267686D01*
X147870Y267717D01*
X153740D01*
Y274803D01*
X147870D01*
X147638Y274834D01*
D02*
G37*
G36*
X326697Y255831D02*
X318972D01*
Y248106D01*
X326697D01*
Y255831D01*
D02*
G37*
G36*
X301181Y255864D02*
X300173Y255731D01*
X299233Y255342D01*
X298427Y254723D01*
X297808Y253916D01*
X297418Y252977D01*
X297286Y251969D01*
X297418Y250960D01*
X297808Y250021D01*
X298427Y249214D01*
X299233Y248595D01*
X300173Y248206D01*
X301181Y248073D01*
X302189Y248206D01*
X303129Y248595D01*
X303936Y249214D01*
X304555Y250021D01*
X304944Y250960D01*
X305077Y251969D01*
X304944Y252977D01*
X304555Y253916D01*
X303936Y254723D01*
X303129Y255342D01*
X302189Y255731D01*
X301181Y255864D01*
D02*
G37*
G36*
X277559D02*
X276551Y255731D01*
X275611Y255342D01*
X274804Y254723D01*
X274185Y253916D01*
X273796Y252977D01*
X273663Y251969D01*
X273796Y250960D01*
X274185Y250021D01*
X274804Y249214D01*
X275611Y248595D01*
X276551Y248206D01*
X277559Y248073D01*
X278567Y248206D01*
X279507Y248595D01*
X280314Y249214D01*
X280933Y250021D01*
X281322Y250960D01*
X281455Y251969D01*
X281322Y252977D01*
X280933Y253916D01*
X280314Y254723D01*
X279507Y255342D01*
X278567Y255731D01*
X277559Y255864D01*
D02*
G37*
G36*
X184177Y253862D02*
X176453D01*
Y246138D01*
X184177D01*
Y253862D01*
D02*
G37*
G36*
X118035D02*
X110311D01*
Y246138D01*
X118035D01*
Y253862D01*
D02*
G37*
G36*
X135827Y253895D02*
X134818Y253763D01*
X133879Y253374D01*
X133072Y252755D01*
X132453Y251948D01*
X132064Y251008D01*
X131931Y250000D01*
X132064Y248992D01*
X132453Y248052D01*
X133072Y247245D01*
X133879Y246626D01*
X134818Y246237D01*
X135827Y246105D01*
X136835Y246237D01*
X137775Y246626D01*
X138581Y247245D01*
X139200Y248052D01*
X139590Y248992D01*
X139722Y250000D01*
X139590Y251008D01*
X139200Y251948D01*
X138581Y252755D01*
X137775Y253374D01*
X136835Y253763D01*
X135827Y253895D01*
D02*
G37*
G36*
X69685D02*
X68677Y253763D01*
X67737Y253374D01*
X66931Y252755D01*
X66311Y251948D01*
X65922Y251008D01*
X65790Y250000D01*
X65922Y248992D01*
X66311Y248052D01*
X66931Y247245D01*
X67737Y246626D01*
X68677Y246237D01*
X69685Y246105D01*
X70693Y246237D01*
X71633Y246626D01*
X72440Y247245D01*
X73059Y248052D01*
X73448Y248992D01*
X73581Y250000D01*
X73448Y251008D01*
X73059Y251948D01*
X72440Y252755D01*
X71633Y253374D01*
X70693Y253763D01*
X69685Y253895D01*
D02*
G37*
G36*
X366142Y249637D02*
X365217Y249515D01*
X364355Y249158D01*
X363615Y248590D01*
X363047Y247850D01*
X362690Y246988D01*
X362568Y246063D01*
X362690Y245138D01*
X363047Y244276D01*
X363615Y243536D01*
X364355Y242968D01*
X365217Y242611D01*
X366142Y242489D01*
X367067Y242611D01*
X367929Y242968D01*
X368669Y243536D01*
X369237Y244276D01*
X369594Y245138D01*
X369716Y246063D01*
X369594Y246988D01*
X369237Y247850D01*
X368669Y248590D01*
X367929Y249158D01*
X367067Y249515D01*
X366142Y249637D01*
D02*
G37*
G36*
X358268D02*
X357343Y249515D01*
X356481Y249158D01*
X355741Y248590D01*
X355173Y247850D01*
X354816Y246988D01*
X354694Y246063D01*
X354816Y245138D01*
X355173Y244276D01*
X355741Y243536D01*
X356481Y242968D01*
X357343Y242611D01*
X358268Y242489D01*
X359193Y242611D01*
X360055Y242968D01*
X360795Y243536D01*
X361363Y244276D01*
X361720Y245138D01*
X361842Y246063D01*
X361720Y246988D01*
X361363Y247850D01*
X360795Y248590D01*
X360055Y249158D01*
X359193Y249515D01*
X358268Y249637D01*
D02*
G37*
G36*
X169882Y234887D02*
X167823D01*
Y231996D01*
X173207D01*
X173158Y232374D01*
X172819Y233192D01*
X172280Y233894D01*
X171578Y234433D01*
X170760Y234772D01*
X169882Y234887D01*
D02*
G37*
G36*
X166823D02*
X164764D01*
X163886Y234772D01*
X163068Y234433D01*
X162366Y233894D01*
X161827Y233192D01*
X161488Y232374D01*
X161438Y231996D01*
X166823D01*
Y234887D01*
D02*
G37*
G36*
X173207Y230996D02*
X167823D01*
Y228105D01*
X169882D01*
X170760Y228220D01*
X171578Y228559D01*
X172280Y229098D01*
X172819Y229801D01*
X173158Y230618D01*
X173207Y230996D01*
D02*
G37*
G36*
X166823D02*
X161438D01*
X161488Y230618D01*
X161827Y229801D01*
X162366Y229098D01*
X163068Y228559D01*
X163886Y228220D01*
X164764Y228105D01*
X166823D01*
Y230996D01*
D02*
G37*
G36*
X147638Y235070D02*
X147406Y235039D01*
X141535D01*
Y227953D01*
X147406D01*
X147638Y227922D01*
X147870Y227953D01*
X153740D01*
Y235039D01*
X147870D01*
X147638Y235070D01*
D02*
G37*
G36*
X187008Y229952D02*
X186083Y229830D01*
X185221Y229473D01*
X184481Y228905D01*
X183913Y228165D01*
X183556Y227303D01*
X183434Y226378D01*
X183556Y225453D01*
X183913Y224591D01*
X184481Y223851D01*
X185221Y223283D01*
X186083Y222926D01*
X187008Y222804D01*
X187933Y222926D01*
X188795Y223283D01*
X189535Y223851D01*
X190103Y224591D01*
X190460Y225453D01*
X190582Y226378D01*
X190460Y227303D01*
X190103Y228165D01*
X189535Y228905D01*
X188795Y229473D01*
X187933Y229830D01*
X187008Y229952D01*
D02*
G37*
G36*
X114173D02*
X113248Y229830D01*
X112386Y229473D01*
X111646Y228905D01*
X111078Y228165D01*
X110721Y227303D01*
X110599Y226378D01*
X110721Y225453D01*
X111078Y224591D01*
X111646Y223851D01*
X112386Y223283D01*
X113248Y222926D01*
X114173Y222804D01*
X115098Y222926D01*
X115960Y223283D01*
X116700Y223851D01*
X117268Y224591D01*
X117625Y225453D01*
X117747Y226378D01*
X117625Y227303D01*
X117268Y228165D01*
X116700Y228905D01*
X115960Y229473D01*
X115098Y229830D01*
X114173Y229952D01*
D02*
G37*
G36*
X163886Y214882D02*
Y211917D01*
X166850D01*
X166796Y212331D01*
X166443Y213182D01*
X165882Y213913D01*
X165151Y214475D01*
X164299Y214827D01*
X163886Y214882D01*
D02*
G37*
G36*
X162886D02*
X162472Y214827D01*
X161621Y214475D01*
X160890Y213913D01*
X160329Y213182D01*
X159976Y212331D01*
X159922Y211917D01*
X162886D01*
Y214882D01*
D02*
G37*
G36*
X366142Y216172D02*
X365217Y216051D01*
X364355Y215693D01*
X363615Y215125D01*
X363047Y214385D01*
X362690Y213523D01*
X362568Y212598D01*
X362690Y211673D01*
X363047Y210811D01*
X363615Y210071D01*
X364355Y209503D01*
X365217Y209146D01*
X366142Y209025D01*
X367067Y209146D01*
X367929Y209503D01*
X368669Y210071D01*
X369237Y210811D01*
X369594Y211673D01*
X369716Y212598D01*
X369594Y213523D01*
X369237Y214385D01*
X368669Y215125D01*
X367929Y215693D01*
X367067Y216051D01*
X366142Y216172D01*
D02*
G37*
G36*
X358268D02*
X357343Y216051D01*
X356481Y215693D01*
X355741Y215125D01*
X355173Y214385D01*
X354816Y213523D01*
X354694Y212598D01*
X354816Y211673D01*
X355173Y210811D01*
X355741Y210071D01*
X356481Y209503D01*
X357343Y209146D01*
X358268Y209025D01*
X359193Y209146D01*
X360055Y209503D01*
X360795Y210071D01*
X361363Y210811D01*
X361720Y211673D01*
X361842Y212598D01*
X361720Y213523D01*
X361363Y214385D01*
X360795Y215125D01*
X360055Y215693D01*
X359193Y216051D01*
X358268Y216172D01*
D02*
G37*
G36*
X304862Y211161D02*
X301681D01*
Y207980D01*
X304862D01*
Y211161D01*
D02*
G37*
G36*
X300681D02*
X297500D01*
Y207980D01*
X300681D01*
Y211161D01*
D02*
G37*
G36*
X166850Y210917D02*
X163886D01*
Y207953D01*
X164299Y208007D01*
X165151Y208360D01*
X165882Y208921D01*
X166443Y209652D01*
X166796Y210504D01*
X166850Y210917D01*
D02*
G37*
G36*
X162886D02*
X159922D01*
X159976Y210504D01*
X160329Y209652D01*
X160890Y208921D01*
X161621Y208360D01*
X162472Y208007D01*
X162886Y207953D01*
Y210917D01*
D02*
G37*
G36*
X187508Y210018D02*
Y207193D01*
X190333D01*
X190284Y207571D01*
X189945Y208388D01*
X189406Y209091D01*
X188704Y209630D01*
X187886Y209969D01*
X187508Y210018D01*
D02*
G37*
G36*
X186508D02*
X186130Y209969D01*
X185312Y209630D01*
X184610Y209091D01*
X184071Y208388D01*
X183732Y207571D01*
X183683Y207193D01*
X186508D01*
Y210018D01*
D02*
G37*
G36*
X114673Y210018D02*
Y207193D01*
X117499D01*
X117449Y207571D01*
X117110Y208388D01*
X116571Y209091D01*
X115869Y209630D01*
X115051Y209969D01*
X114673Y210018D01*
D02*
G37*
G36*
X113673Y210018D02*
X113295Y209969D01*
X112478Y209630D01*
X111775Y209091D01*
X111236Y208388D01*
X110898Y207571D01*
X110848Y207193D01*
X113673D01*
Y210018D01*
D02*
G37*
G36*
X304862Y206980D02*
X301681D01*
Y203799D01*
X304862D01*
Y206980D01*
D02*
G37*
G36*
X300681D02*
X297500D01*
Y203799D01*
X300681D01*
Y206980D01*
D02*
G37*
G36*
X281421Y211343D02*
X273697D01*
Y203618D01*
X281421D01*
Y211343D01*
D02*
G37*
G36*
X322835Y211376D02*
X321826Y211243D01*
X320887Y210854D01*
X320080Y210235D01*
X319461Y209428D01*
X319072Y208489D01*
X318939Y207480D01*
X319072Y206472D01*
X319461Y205533D01*
X320080Y204726D01*
X320887Y204107D01*
X321826Y203717D01*
X322835Y203585D01*
X323843Y203717D01*
X324782Y204107D01*
X325589Y204726D01*
X326208Y205533D01*
X326597Y206472D01*
X326730Y207480D01*
X326597Y208489D01*
X326208Y209428D01*
X325589Y210235D01*
X324782Y210854D01*
X323843Y211243D01*
X322835Y211376D01*
D02*
G37*
G36*
X117499Y206193D02*
X114673D01*
Y203367D01*
X115051Y203417D01*
X115869Y203756D01*
X116571Y204295D01*
X117110Y204997D01*
X117449Y205815D01*
X117499Y206193D01*
D02*
G37*
G36*
X190333Y206193D02*
X187508D01*
Y203367D01*
X187886Y203417D01*
X188704Y203756D01*
X189406Y204295D01*
X189945Y204997D01*
X190284Y205815D01*
X190333Y206193D01*
D02*
G37*
G36*
X186508D02*
X183683D01*
X183732Y205815D01*
X184071Y204997D01*
X184610Y204295D01*
X185312Y203756D01*
X186130Y203417D01*
X186508Y203367D01*
Y206193D01*
D02*
G37*
G36*
X113673Y206193D02*
X110848D01*
X110898Y205815D01*
X111236Y204997D01*
X111775Y204295D01*
X112478Y203756D01*
X113295Y203417D01*
X113673Y203367D01*
Y206193D01*
D02*
G37*
G36*
X136327Y200315D02*
Y197350D01*
X139291D01*
X139237Y197764D01*
X138884Y198616D01*
X138323Y199347D01*
X137592Y199908D01*
X136741Y200260D01*
X136327Y200315D01*
D02*
G37*
G36*
X135327D02*
X134913Y200260D01*
X134062Y199908D01*
X133331Y199347D01*
X132770Y198616D01*
X132417Y197764D01*
X132362Y197350D01*
X135327D01*
Y200315D01*
D02*
G37*
G36*
X139291Y196350D02*
X136327D01*
Y193386D01*
X136741Y193440D01*
X137592Y193793D01*
X138323Y194354D01*
X138884Y195085D01*
X139237Y195937D01*
X139291Y196350D01*
D02*
G37*
G36*
X135327D02*
X132362D01*
X132417Y195937D01*
X132770Y195085D01*
X133331Y194354D01*
X134062Y193793D01*
X134913Y193440D01*
X135327Y193386D01*
Y196350D01*
D02*
G37*
G36*
X301681Y194409D02*
Y191445D01*
X304645D01*
X304591Y191859D01*
X304238Y192710D01*
X303677Y193441D01*
X302946Y194002D01*
X302095Y194355D01*
X301681Y194409D01*
D02*
G37*
G36*
X300681D02*
X300267Y194355D01*
X299416Y194002D01*
X298685Y193441D01*
X298124Y192710D01*
X297771Y191859D01*
X297717Y191445D01*
X300681D01*
Y194409D01*
D02*
G37*
G36*
X304645Y190445D02*
X301681D01*
Y187480D01*
X302095Y187535D01*
X302946Y187888D01*
X303677Y188449D01*
X304238Y189180D01*
X304591Y190031D01*
X304645Y190445D01*
D02*
G37*
G36*
X300681D02*
X297717D01*
X297771Y190031D01*
X298124Y189180D01*
X298685Y188449D01*
X299416Y187888D01*
X300267Y187535D01*
X300681Y187480D01*
Y190445D01*
D02*
G37*
G36*
X77272Y184567D02*
Y181602D01*
X80236D01*
X80182Y182016D01*
X79829Y182868D01*
X79268Y183599D01*
X78537Y184160D01*
X77685Y184512D01*
X77272Y184567D01*
D02*
G37*
G36*
X76272D02*
X75858Y184512D01*
X75007Y184160D01*
X74275Y183599D01*
X73714Y182868D01*
X73362Y182016D01*
X73307Y181602D01*
X76272D01*
Y184567D01*
D02*
G37*
G36*
X80236Y180602D02*
X77272D01*
Y177638D01*
X77685Y177692D01*
X78537Y178045D01*
X79268Y178606D01*
X79829Y179337D01*
X80182Y180189D01*
X80236Y180602D01*
D02*
G37*
G36*
X76272D02*
X73307D01*
X73362Y180189D01*
X73714Y179337D01*
X74275Y178606D01*
X75007Y178045D01*
X75858Y177692D01*
X76272Y177638D01*
Y180602D01*
D02*
G37*
G36*
X114673Y170648D02*
Y167823D01*
X117499D01*
X117449Y168201D01*
X117110Y169018D01*
X116571Y169721D01*
X115869Y170260D01*
X115051Y170598D01*
X114673Y170648D01*
D02*
G37*
G36*
X113673D02*
X113295Y170598D01*
X112478Y170260D01*
X111775Y169721D01*
X111236Y169018D01*
X110898Y168201D01*
X110848Y167823D01*
X113673D01*
Y170648D01*
D02*
G37*
G36*
X187508D02*
Y167823D01*
X190333D01*
X190284Y168201D01*
X189945Y169018D01*
X189406Y169721D01*
X188704Y170260D01*
X187886Y170598D01*
X187508Y170648D01*
D02*
G37*
G36*
X186508D02*
X186130Y170598D01*
X185312Y170260D01*
X184610Y169721D01*
X184071Y169018D01*
X183732Y168201D01*
X183683Y167823D01*
X186508D01*
Y170648D01*
D02*
G37*
G36*
X117499Y166823D02*
X114673D01*
Y163997D01*
X115051Y164047D01*
X115869Y164386D01*
X116571Y164925D01*
X117110Y165627D01*
X117449Y166445D01*
X117499Y166823D01*
D02*
G37*
G36*
X190333Y166823D02*
X187508D01*
Y163997D01*
X187886Y164047D01*
X188704Y164386D01*
X189406Y164925D01*
X189945Y165627D01*
X190284Y166445D01*
X190333Y166823D01*
D02*
G37*
G36*
X186508D02*
X183683D01*
X183732Y166445D01*
X184071Y165627D01*
X184610Y164925D01*
X185312Y164386D01*
X186130Y164047D01*
X186508Y163997D01*
Y166823D01*
D02*
G37*
G36*
X113673Y166823D02*
X110848D01*
X110898Y166445D01*
X111236Y165627D01*
X111775Y164925D01*
X112478Y164386D01*
X113295Y164047D01*
X113673Y163997D01*
Y166823D01*
D02*
G37*
G36*
X167323Y170897D02*
X166398Y170775D01*
X165536Y170418D01*
X164796Y169850D01*
X164228Y169110D01*
X163871Y168248D01*
X163749Y167323D01*
X163871Y166398D01*
X164228Y165536D01*
X164796Y164796D01*
X165536Y164228D01*
X166398Y163871D01*
X167323Y163749D01*
X168248Y163871D01*
X169110Y164228D01*
X169850Y164796D01*
X170418Y165536D01*
X170775Y166398D01*
X170897Y167323D01*
X170775Y168248D01*
X170418Y169110D01*
X169850Y169850D01*
X169110Y170418D01*
X168248Y170775D01*
X167323Y170897D01*
D02*
G37*
G36*
X94488D02*
X93563Y170775D01*
X92701Y170418D01*
X91961Y169850D01*
X91393Y169110D01*
X91036Y168248D01*
X90914Y167323D01*
X91036Y166398D01*
X91393Y165536D01*
X91961Y164796D01*
X92701Y164228D01*
X93563Y163871D01*
X94488Y163749D01*
X95413Y163871D01*
X96275Y164228D01*
X97015Y164796D01*
X97583Y165536D01*
X97940Y166398D01*
X98062Y167323D01*
X97940Y168248D01*
X97583Y169110D01*
X97015Y169850D01*
X96275Y170418D01*
X95413Y170775D01*
X94488Y170897D01*
D02*
G37*
G36*
X233858Y156340D02*
X226772D01*
X225538Y156178D01*
X224389Y155702D01*
X223402Y154944D01*
X222645Y153957D01*
X222169Y152808D01*
X222007Y151575D01*
X222169Y150341D01*
X222645Y149192D01*
X223402Y148205D01*
X224389Y147448D01*
X225538Y146972D01*
X226772Y146810D01*
X233858D01*
X235092Y146972D01*
X236241Y147448D01*
X237228Y148205D01*
X237985Y149192D01*
X238461Y150341D01*
X238623Y151575D01*
X238461Y152808D01*
X237985Y153957D01*
X237228Y154944D01*
X236241Y155702D01*
X235092Y156178D01*
X233858Y156340D01*
D02*
G37*
G36*
Y142840D02*
X226772D01*
X225538Y142678D01*
X224389Y142202D01*
X223402Y141444D01*
X222645Y140457D01*
X222169Y139308D01*
X222007Y138075D01*
X222169Y136841D01*
X222645Y135692D01*
X223402Y134705D01*
X224389Y133948D01*
X225538Y133472D01*
X226772Y133310D01*
X233858D01*
X235092Y133472D01*
X236241Y133948D01*
X237228Y134705D01*
X237985Y135692D01*
X238461Y136841D01*
X238623Y138075D01*
X238461Y139308D01*
X237985Y140457D01*
X237228Y141444D01*
X236241Y142202D01*
X235092Y142678D01*
X233858Y142840D01*
D02*
G37*
G36*
Y129157D02*
X230815D01*
Y125075D01*
X238375D01*
X238285Y125761D01*
X237827Y126866D01*
X237099Y127815D01*
X236150Y128543D01*
X235044Y129001D01*
X233858Y129157D01*
D02*
G37*
G36*
X229815D02*
X226772D01*
X225586Y129001D01*
X224480Y128543D01*
X223531Y127815D01*
X222803Y126866D01*
X222345Y125761D01*
X222255Y125075D01*
X229815D01*
Y129157D01*
D02*
G37*
G36*
X187508Y127341D02*
Y124516D01*
X190333D01*
X190284Y124893D01*
X189945Y125711D01*
X189406Y126414D01*
X188704Y126953D01*
X187886Y127291D01*
X187508Y127341D01*
D02*
G37*
G36*
X186508Y127341D02*
X186130Y127291D01*
X185312Y126953D01*
X184610Y126414D01*
X184071Y125711D01*
X183732Y124893D01*
X183683Y124516D01*
X186508D01*
Y127341D01*
D02*
G37*
G36*
X114673Y125373D02*
Y122547D01*
X117499D01*
X117449Y122925D01*
X117110Y123743D01*
X116571Y124445D01*
X115869Y124984D01*
X115051Y125323D01*
X114673Y125373D01*
D02*
G37*
G36*
X113673D02*
X113295Y125323D01*
X112478Y124984D01*
X111775Y124445D01*
X111236Y123743D01*
X110898Y122925D01*
X110848Y122547D01*
X113673D01*
Y125373D01*
D02*
G37*
G36*
X186508Y123516D02*
X183683D01*
X183732Y123138D01*
X184071Y122320D01*
X184610Y121618D01*
X185312Y121079D01*
X186130Y120740D01*
X186508Y120690D01*
Y123516D01*
D02*
G37*
G36*
X190333D02*
X187508D01*
Y120690D01*
X187886Y120740D01*
X188704Y121079D01*
X189406Y121618D01*
X189945Y122320D01*
X190284Y123138D01*
X190333Y123516D01*
D02*
G37*
G36*
X262311Y123543D02*
Y120579D01*
X265275D01*
X265221Y120992D01*
X264868Y121844D01*
X264307Y122575D01*
X263576Y123136D01*
X262725Y123489D01*
X262311Y123543D01*
D02*
G37*
G36*
X261311D02*
X260897Y123489D01*
X260046Y123136D01*
X259315Y122575D01*
X258754Y121844D01*
X258401Y120992D01*
X258347Y120579D01*
X261311D01*
Y123543D01*
D02*
G37*
G36*
X167323Y127590D02*
X166398Y127468D01*
X165536Y127111D01*
X164796Y126543D01*
X164228Y125803D01*
X163871Y124941D01*
X163749Y124016D01*
X163871Y123091D01*
X164228Y122229D01*
X164796Y121489D01*
X165536Y120921D01*
X166398Y120564D01*
X167323Y120442D01*
X168248Y120564D01*
X169110Y120921D01*
X169850Y121489D01*
X170418Y122229D01*
X170775Y123091D01*
X170897Y124016D01*
X170775Y124941D01*
X170418Y125803D01*
X169850Y126543D01*
X169110Y127111D01*
X168248Y127468D01*
X167323Y127590D01*
D02*
G37*
G36*
X238375Y124075D02*
X230815D01*
Y119992D01*
X233858D01*
X235044Y120148D01*
X236150Y120606D01*
X237099Y121335D01*
X237827Y122283D01*
X238285Y123389D01*
X238375Y124075D01*
D02*
G37*
G36*
X229815D02*
X222255D01*
X222345Y123389D01*
X222803Y122283D01*
X223531Y121335D01*
X224480Y120606D01*
X225586Y120148D01*
X226772Y119992D01*
X229815D01*
Y124075D01*
D02*
G37*
G36*
X117499Y121547D02*
X114673D01*
Y118722D01*
X115051Y118772D01*
X115869Y119110D01*
X116571Y119649D01*
X117110Y120352D01*
X117449Y121169D01*
X117499Y121547D01*
D02*
G37*
G36*
X113673D02*
X110848D01*
X110898Y121169D01*
X111236Y120352D01*
X111775Y119649D01*
X112478Y119110D01*
X113295Y118772D01*
X113673Y118722D01*
Y121547D01*
D02*
G37*
G36*
X94488Y125621D02*
X93563Y125499D01*
X92701Y125142D01*
X91961Y124574D01*
X91393Y123834D01*
X91036Y122972D01*
X90914Y122047D01*
X91036Y121122D01*
X91393Y120260D01*
X91961Y119520D01*
X92701Y118952D01*
X93563Y118595D01*
X94488Y118473D01*
X95413Y118595D01*
X96275Y118952D01*
X97015Y119520D01*
X97583Y120260D01*
X97940Y121122D01*
X98062Y122047D01*
X97940Y122972D01*
X97583Y123834D01*
X97015Y124574D01*
X96275Y125142D01*
X95413Y125499D01*
X94488Y125621D01*
D02*
G37*
G36*
X265275Y119579D02*
X262311D01*
Y116614D01*
X262725Y116669D01*
X263576Y117022D01*
X264307Y117582D01*
X264868Y118314D01*
X265221Y119165D01*
X265275Y119579D01*
D02*
G37*
G36*
X261311D02*
X258347D01*
X258401Y119165D01*
X258754Y118314D01*
X259315Y117582D01*
X260046Y117022D01*
X260897Y116669D01*
X261311Y116614D01*
Y119579D01*
D02*
G37*
G36*
X114673Y107795D02*
Y104831D01*
X117638D01*
X117583Y105244D01*
X117230Y106096D01*
X116669Y106827D01*
X115938Y107388D01*
X115087Y107741D01*
X114673Y107795D01*
D02*
G37*
G36*
X113673D02*
X113259Y107741D01*
X112408Y107388D01*
X111677Y106827D01*
X111116Y106096D01*
X110763Y105244D01*
X110709Y104831D01*
X113673D01*
Y107795D01*
D02*
G37*
G36*
X117638Y103831D02*
X114673D01*
Y100866D01*
X115087Y100921D01*
X115938Y101274D01*
X116669Y101834D01*
X117230Y102566D01*
X117583Y103417D01*
X117638Y103831D01*
D02*
G37*
G36*
X113673D02*
X110709D01*
X110763Y103417D01*
X111116Y102566D01*
X111677Y101834D01*
X112408Y101274D01*
X113259Y100921D01*
X113673Y100866D01*
Y103831D01*
D02*
G37*
%LPD*%
D17*
X135827Y250000D02*
D03*
X69685D02*
D03*
X322835Y207480D02*
D03*
X277559Y251969D02*
D03*
X301181D02*
D03*
D18*
X180315Y250000D02*
D03*
X114173D02*
D03*
D23*
X322835Y251969D02*
D03*
X277559Y207480D02*
D03*
X301181D02*
D03*
D25*
X147638Y231496D02*
D03*
Y271260D02*
D03*
D26*
X167323Y231496D02*
D03*
Y271260D02*
D03*
D27*
X182598Y287402D02*
D03*
D28*
X192598D02*
D03*
X202598D02*
D03*
X212598D02*
D03*
X222598D02*
D03*
X232598D02*
D03*
X242598D02*
D03*
X252598D02*
D03*
D29*
X230315Y151575D02*
D03*
Y138075D02*
D03*
Y124575D02*
D03*
D30*
X358268Y246063D02*
D03*
X366142D02*
D03*
X187008Y124016D02*
D03*
X167323D02*
D03*
Y167323D02*
D03*
X187008D02*
D03*
X187008Y206693D02*
D03*
Y226378D02*
D03*
X114173Y206693D02*
D03*
Y226378D02*
D03*
Y167323D02*
D03*
X94488D02*
D03*
X114173Y122047D02*
D03*
X94488D02*
D03*
X358268Y212598D02*
D03*
X366142D02*
D03*
D31*
X167717Y279528D02*
D03*
X163386Y211417D02*
D03*
X281496Y277559D02*
D03*
X261811Y120079D02*
D03*
X135827Y196850D02*
D03*
X301181Y190945D02*
D03*
X76772Y181102D02*
D03*
X114173Y104331D02*
D03*
M02*
