G04*
G04 #@! TF.GenerationSoftware,Altium Limited,Altium Designer,20.2.5 (213)*
G04*
G04 Layer_Physical_Order=1*
G04 Layer_Color=255*
%FSLAX25Y25*%
%MOIN*%
G70*
G04*
G04 #@! TF.SameCoordinates,C82EAABF-E96C-4361-AD7C-52AFF524FF79*
G04*
G04*
G04 #@! TF.FilePolarity,Positive*
G04*
G01*
G75*
%ADD17C,0.05362*%
%ADD18R,0.05362X0.05362*%
%ADD23R,0.05362X0.05362*%
%ADD24C,0.01968*%
%ADD25R,0.09843X0.04724*%
%ADD26O,0.09843X0.04724*%
%ADD27R,0.06300X0.06300*%
%ADD28C,0.06300*%
%ADD29O,0.14173X0.07087*%
%ADD30C,0.04724*%
%ADD31C,0.05000*%
D17*
X135827Y250000D02*
D03*
X69685D02*
D03*
X322835Y207480D02*
D03*
X277559Y251969D02*
D03*
X301181D02*
D03*
D18*
X180315Y250000D02*
D03*
X114173D02*
D03*
D23*
X322835Y251969D02*
D03*
X277559Y207480D02*
D03*
X301181D02*
D03*
D24*
X163386Y211417D02*
X167323Y215354D01*
X148031Y268898D02*
Y271260D01*
Y276772D01*
X158268Y287008D02*
X182205D01*
X148031Y276772D02*
X158268Y287008D01*
X135827Y250000D02*
Y284252D01*
X145276Y293701D02*
X196299D01*
X135827Y284252D02*
X145276Y293701D01*
X196299D02*
X202598Y287402D01*
X167717Y268898D02*
Y278346D01*
X167323Y215354D02*
Y231496D01*
X187008Y226378D02*
X187402Y226772D01*
X180315Y250000D02*
X187402Y242913D01*
Y226772D02*
Y242913D01*
X135433Y249606D02*
X135827Y250000D01*
X145079Y231496D02*
X147638D01*
X135433Y241142D02*
X145079Y231496D01*
X135433Y241142D02*
Y249606D01*
X182205Y287008D02*
X182598Y287402D01*
X124803Y219685D02*
X167323Y177165D01*
X124803Y219685D02*
Y284646D01*
X141339Y301181D01*
X208819D01*
X211024Y116535D02*
Y253150D01*
X192598Y271575D02*
Y287402D01*
Y271575D02*
X211024Y253150D01*
X194882Y100394D02*
X211024Y116535D01*
X163386Y211417D02*
X164567D01*
X169291Y206693D01*
X167323Y167323D02*
Y177165D01*
X264961Y207480D02*
X277559D01*
X208661Y263779D02*
Y271339D01*
Y263779D02*
X264961Y207480D01*
X192598Y287402D02*
X208661Y271339D01*
X182598Y272126D02*
X202756Y251969D01*
Y118110D02*
Y251969D01*
X192913Y108268D02*
X202756Y118110D01*
X155512Y108268D02*
X192913D01*
X187008Y167323D02*
Y206693D01*
X187008Y206693D02*
X187008Y206693D01*
X187008Y124016D02*
X187008Y124016D01*
X187008Y124016D02*
Y167323D01*
X187008Y167323D01*
X230315Y124575D02*
X257315D01*
X261811Y120079D01*
X169291Y206693D02*
X187008D01*
X151575Y112205D02*
X155512Y108268D01*
X114173Y206693D02*
X125984D01*
X135827Y196850D01*
X301181Y190945D02*
Y207480D01*
X301181Y190945D02*
X301181Y190945D01*
X242598Y287402D02*
X252441Y277559D01*
X281496D01*
X346457Y287402D02*
X366142Y267717D01*
X252598Y287402D02*
X346457D01*
X350394Y301181D02*
X377953Y273622D01*
X232598Y287402D02*
X246378Y301181D01*
X350394D01*
X212598Y287402D02*
X230315Y269685D01*
X332677D02*
X334646Y267717D01*
X230315Y269685D02*
X332677D01*
X76772Y181102D02*
X100394D01*
X114173Y167323D01*
X98425Y194882D02*
X120079D01*
X151575Y163386D01*
Y112205D02*
Y163386D01*
X114173Y104331D02*
Y122047D01*
X114173Y122047D01*
X182598Y272126D02*
Y287402D01*
X208819Y301181D02*
X222598Y287402D01*
X69685Y223622D02*
X98425Y194882D01*
X69685Y223622D02*
Y250000D01*
X151575Y100394D02*
X194882D01*
X94488Y122047D02*
Y167323D01*
X141732Y120079D01*
Y110236D02*
Y120079D01*
Y110236D02*
X151575Y100394D01*
X230315Y138075D02*
X307366D01*
X358268Y188976D01*
Y212598D01*
X167323Y124016D02*
Y167323D01*
X334646Y219291D02*
Y267717D01*
X322835Y207480D02*
X334646Y219291D01*
X301181Y251969D02*
X322835D01*
X277559D02*
X301181D01*
X377953Y238189D02*
Y273622D01*
X366142Y212598D02*
Y226378D01*
X377953Y238189D01*
X366142Y246063D02*
Y267717D01*
X342520Y230315D02*
X358268Y246063D01*
X342520Y190945D02*
Y230315D01*
X303150Y151575D02*
X342520Y190945D01*
X230315Y151575D02*
X303150D01*
X114173Y226378D02*
Y250000D01*
D25*
X147638Y231496D02*
D03*
Y271260D02*
D03*
D26*
X167323Y231496D02*
D03*
Y271260D02*
D03*
D27*
X182598Y287402D02*
D03*
D28*
X192598D02*
D03*
X202598D02*
D03*
X212598D02*
D03*
X222598D02*
D03*
X232598D02*
D03*
X242598D02*
D03*
X252598D02*
D03*
D29*
X230315Y151575D02*
D03*
Y138075D02*
D03*
Y124575D02*
D03*
D30*
X358268Y246063D02*
D03*
X366142D02*
D03*
X187008Y124016D02*
D03*
X167323D02*
D03*
Y167323D02*
D03*
X187008D02*
D03*
X187008Y206693D02*
D03*
Y226378D02*
D03*
X114173Y206693D02*
D03*
Y226378D02*
D03*
Y167323D02*
D03*
X94488D02*
D03*
X114173Y122047D02*
D03*
X94488D02*
D03*
X358268Y212598D02*
D03*
X366142D02*
D03*
D31*
X167717Y279528D02*
D03*
X163386Y211417D02*
D03*
X281496Y277559D02*
D03*
X261811Y120079D02*
D03*
X135827Y196850D02*
D03*
X301181Y190945D02*
D03*
X76772Y181102D02*
D03*
X114173Y104331D02*
D03*
M02*
