G04*
G04 #@! TF.GenerationSoftware,Altium Limited,Altium Designer,20.2.5 (213)*
G04*
G04 Layer_Color=8388736*
%FSLAX25Y25*%
%MOIN*%
G70*
G04*
G04 #@! TF.SameCoordinates,C82EAABF-E96C-4361-AD7C-52AFF524FF79*
G04*
G04*
G04 #@! TF.FilePolarity,Negative*
G04*
G01*
G75*
%ADD15R,0.10642X0.05524*%
%ADD16O,0.10642X0.05524*%
%ADD17C,0.05362*%
%ADD18R,0.05362X0.05362*%
%ADD19R,0.07100X0.07100*%
%ADD20C,0.07100*%
%ADD21O,0.14973X0.07887*%
%ADD22C,0.05524*%
%ADD23R,0.05362X0.05362*%
D15*
X147638Y231496D02*
D03*
Y271260D02*
D03*
D16*
X167323Y231496D02*
D03*
Y271260D02*
D03*
D17*
X135827Y250000D02*
D03*
X69685D02*
D03*
X322835Y207480D02*
D03*
X277559Y251969D02*
D03*
X301181D02*
D03*
D18*
X180315Y250000D02*
D03*
X114173D02*
D03*
D19*
X182598Y287402D02*
D03*
D20*
X192598D02*
D03*
X202598D02*
D03*
X212598D02*
D03*
X222598D02*
D03*
X232598D02*
D03*
X242598D02*
D03*
X252598D02*
D03*
D21*
X230315Y151575D02*
D03*
Y138075D02*
D03*
Y124575D02*
D03*
D22*
X358268Y246063D02*
D03*
X366142D02*
D03*
X187008Y124016D02*
D03*
X167323D02*
D03*
Y167323D02*
D03*
X187008D02*
D03*
X187008Y206693D02*
D03*
Y226378D02*
D03*
X114173Y206693D02*
D03*
Y226378D02*
D03*
Y167323D02*
D03*
X94488D02*
D03*
X114173Y122047D02*
D03*
X94488D02*
D03*
X358268Y212598D02*
D03*
X366142D02*
D03*
D23*
X322835Y251969D02*
D03*
X277559Y207480D02*
D03*
X301181D02*
D03*
M02*
